<?xml version="1.0" encoding="UTF-8" standalone="no"?>
<!-- Created with Inkscape (http://www.inkscape.org/) -->

<svg
   width="75mm"
   height="75mm"
   viewBox="0 0 75 75"
   version="1.1"
   id="svg1"
   xml:space="preserve"
   inkscape:version="1.4.2 (f4327f4, 2025-05-13)"
   sodipodi:docname="novaplaylatam_skaliert.svg"
   xmlns:inkscape="http://www.inkscape.org/namespaces/inkscape"
   xmlns:sodipodi="http://sodipodi.sourceforge.net/DTD/sodipodi-0.dtd"
   xmlns:xlink="http://www.w3.org/1999/xlink"
   xmlns="http://www.w3.org/2000/svg"
   xmlns:svg="http://www.w3.org/2000/svg"><sodipodi:namedview
     id="namedview1"
     pagecolor="#ffffff"
     bordercolor="#000000"
     borderopacity="0.25"
     inkscape:showpageshadow="2"
     inkscape:pageopacity="0.0"
     inkscape:pagecheckerboard="0"
     inkscape:deskcolor="#d1d1d1"
     inkscape:document-units="mm"
     inkscape:zoom="3.2337963"
     inkscape:cx="267.48747"
     inkscape:cy="109.62348"
     inkscape:window-width="3840"
     inkscape:window-height="2054"
     inkscape:window-x="2293"
     inkscape:window-y="-11"
     inkscape:window-maximized="1"
     inkscape:current-layer="layer1" /><defs
     id="defs1"><linearGradient
       id="linearGradient1"
       inkscape:collect="always"><stop
         style="stop-color:#278bfc;stop-opacity:1;"
         offset="0"
         id="stop1" /><stop
         style="stop-color:#9539fe;stop-opacity:1;"
         offset="1"
         id="stop2" /></linearGradient><linearGradient
       inkscape:collect="always"
       xlink:href="#linearGradient1"
       id="linearGradient2"
       x1="-1.645418e-09"
       y1="38.078613"
       x2="85.669998"
       y2="38.078613"
       gradientUnits="userSpaceOnUse"
       gradientTransform="scale(0.87545231,0.98480475)" /></defs><g
     inkscape:label="Ebene 1"
     inkscape:groupmode="layer"
     id="layer1"><path
       style="fill:url(#linearGradient2);stroke-width:0.92852"
       d="m 62.184085,74.744619 c -0.07039,-0.415017 -0.19287,-1.809845 -0.27216,-3.099634 -0.206842,-3.364586 -0.08334,-3.171091 -2.148705,-3.366387 -0.983368,-0.09296 -2.34303,-0.238294 -3.021461,-0.322898 l -1.233518,-0.153837 2.930282,-1.23785 c 1.61166,-0.680825 3.009527,-1.340418 3.10637,-1.465764 0.09684,-0.125346 0.362997,-1.634943 0.591445,-3.354658 0.474915,-3.575029 0.687308,-4.270675 0.885169,-2.899147 0.209005,1.448854 1.317063,5.374493 1.517016,5.374493 0.0982,0 1.319584,-0.463774 2.714203,-1.030618 l 2.535665,-1.030628 -0.810713,0.774628 c -0.445884,0.426046 -1.408161,1.329063 -2.138384,2.006707 l -1.32769,1.23207 1.790944,2.056301 c 0.985022,1.13097 1.582483,1.973116 1.327691,1.871454 -0.730161,-0.291345 -4.329567,-1.231222 -4.369155,-1.140866 -0.01961,0.04471 -0.466151,1.534827 -0.992323,3.311288 -0.794699,2.683011 -0.978352,3.102144 -1.084676,2.475346 z M 12.332562,65.922688 C 4.3808879,64.29777 0.36516617,59.789905 0.02140906,52.102766 -0.31447859,44.591601 3.3116117,36.07821 10.218046,28.162941 c 1.515871,-1.737295 2.614393,-2.908296 2.441159,-2.602228 -0.173233,0.306067 -1.009102,1.713106 -1.857487,3.126754 -2.914295,4.856034 -4.7390501,9.662067 -5.4427811,14.335173 -1.1990644,7.962353 2.4759924,13.428305 10.2483181,15.242424 1.954403,0.456171 2.830369,0.514974 5.88635,0.395162 5.906115,-0.231557 12.097725,-2.033917 17.889899,-5.207697 l 2.938861,-1.610323 -1.554546,-2.359957 C 36.115525,42.419633 28.441925,30.606547 27.958313,29.762717 c -0.306984,-0.535636 -0.610268,-0.975361 -0.673966,-0.977163 -0.06369,-0.002 -0.115814,6.059769 -0.115814,13.470159 v 13.473429 l -0.810705,0.218065 c -0.445887,0.119939 -2.869312,0.287396 -5.385389,0.372138 l -4.574685,0.154073 V 33.768764 11.064116 l 6.196093,0.01024 6.196093,0.01025 6.047218,9.565398 c 3.325977,5.26097 7.964359,12.651654 10.30752,16.423741 l 4.260293,6.858338 0.05945,-16.368882 0.05945,-16.368888 h 5.069214 5.069219 l 0.164987,6.774639 c 0.09075,3.726048 0.128096,8.660122 0.083,10.964614 -0.09882,5.049124 0.511193,3.897384 -6.313015,11.91926 -2.680897,3.151384 -4.753893,5.682027 -4.606659,5.623638 0.721747,-0.286214 5.842394,-5.137648 8.450509,-8.006236 C 62.840906,32.531186 66.406984,26.14842 67.99471,19.580861 68.588195,17.12591 68.510919,12.92879 67.836367,10.981428 65.924873,5.4631275 59.02388,2.2186981 49.81234,2.5076201 48.267214,2.5560725 47.141682,2.508605 47.31116,2.4026005 47.720582,2.14599 52.689364,0.75925696 54.732421,0.33139868 55.649272,0.13939129 57.964243,-0.00455762 60.059905,1.1035652e-4 63.20128,0.00700399 64.046712,0.09839387 65.60856,0.59936406 69.570412,1.8700575 72.366128,4.3062872 73.806096,7.7428323 74.692323,9.8578388 75,11.592838 75,14.475155 75,23.188554 69.992124,33.56687 61.181187,43.113271 49.754705,55.493508 35.319399,64.056119 22.749819,65.909669 c -3.186217,0.469851 -8.151214,0.476025 -10.417309,0.0129 z m 37.397736,-3.710872 c -0.326097,-0.400835 -0.978457,-1.335001 -1.449695,-2.075938 l -0.856794,-1.347154 2.496225,-1.691875 c 2.976229,-2.017205 5.982921,-4.395952 8.183191,-6.474146 0.883014,-0.834032 1.632401,-1.516491 1.665291,-1.51659 0.03292,-9.8e-5 0.03047,3.094198 -0.0052,6.876212 l -0.06522,6.87639 -4.687364,0.04097 -4.687367,0.04097 z"
       id="path1"
       sodipodi:nodetypes="sssscsssssscsscssssscsssssssscsscscsscccccsscccccsssssssscsccsssscccscsssccccc" /></g></svg>
