<?xml version="1.0" encoding="UTF-8" standalone="no"?>
<!-- Created with Inkscape (http://www.inkscape.org/) -->

<svg
   width="631.42548mm"
   height="78.4021mm"
   viewBox="0 0 631.42547 78.4021"
   version="1.1"
   id="svg1"
   xml:space="preserve"
   inkscape:version="1.4.2 (f4327f4, 2025-05-13)"
   sodipodi:docname="novaplaylatam_lang.svg"
   xmlns:inkscape="http://www.inkscape.org/namespaces/inkscape"
   xmlns:sodipodi="http://sodipodi.sourceforge.net/DTD/sodipodi-0.dtd"
   xmlns:xlink="http://www.w3.org/1999/xlink"
   xmlns="http://www.w3.org/2000/svg"
   xmlns:svg="http://www.w3.org/2000/svg"><sodipodi:namedview
     id="namedview1"
     pagecolor="#ffffff"
     bordercolor="#000000"
     borderopacity="0.25"
     inkscape:showpageshadow="2"
     inkscape:pageopacity="0.0"
     inkscape:pagecheckerboard="0"
     inkscape:deskcolor="#d1d1d1"
     inkscape:document-units="mm"
     inkscape:zoom="0.70710678"
     inkscape:cx="801.15198"
     inkscape:cy="166.17009"
     inkscape:window-width="3840"
     inkscape:window-height="2054"
     inkscape:window-x="2293"
     inkscape:window-y="-11"
     inkscape:window-maximized="1"
     inkscape:current-layer="layer1"
     showguides="true"><sodipodi:guide
       position="57.190909,14.560029"
       orientation="0,-1"
       id="guide1"
       inkscape:locked="false" /></sodipodi:namedview><defs
     id="defs1"><linearGradient
       id="linearGradient5"
       inkscape:collect="always"><stop
         style="stop-color:#278bfc;stop-opacity:1;"
         offset="0"
         id="stop5" /><stop
         style="stop-color:#9539fe;stop-opacity:1;"
         offset="1"
         id="stop6" /></linearGradient><linearGradient
       inkscape:collect="always"
       xlink:href="#linearGradient5"
       id="linearGradient6"
       x1="-1.6453896e-09"
       y1="39.201051"
       x2="631.42546"
       y2="39.201051"
       gradientUnits="userSpaceOnUse" /></defs><g
     inkscape:label="Ebene 1"
     inkscape:groupmode="layer"
     id="layer1"><g
       id="g5"
       style="fill:url(#linearGradient6)"><path
         style="fill:url(#linearGradient6);fill-opacity:1"
         d="m 71.030808,75.897907 c -0.0804,-0.42142 -0.220309,-1.83777 -0.310879,-3.14746 -0.23627,-3.4165 -0.0952,-3.22002 -2.454395,-3.41833 -1.123268,-0.0944 -2.676365,-0.24197 -3.451314,-0.32788 l -1.409007,-0.15621 3.347164,-1.25695 c 1.840946,-0.69133 3.437683,-1.3611 3.548303,-1.48838 0.11062,-0.12728 0.414639,-1.66017 0.675588,-3.40642 0.542479,-3.63019 0.785089,-4.33657 1.011099,-2.94388 0.238739,1.47121 1.504437,5.45742 1.732836,5.45742 0.11217,0 1.507317,-0.47093 3.100344,-1.04652 l 2.896405,-1.04653 -0.926049,0.78658 c -0.509319,0.43262 -1.608497,1.34957 -2.442605,2.03767 l -1.516577,1.25108 2.045736,2.08803 c 1.125158,1.14842 1.807617,2.00356 1.516577,1.90033 -0.834038,-0.29584 -4.94552,-1.25022 -4.99074,-1.15847 -0.0224,0.0454 -0.532469,1.55851 -1.133498,3.36238 -0.907758,2.72441 -1.117538,3.15001 -1.238988,2.51354 z M 14.087075,66.939857 C 5.0041422,65.289867 0.41711714,60.712447 0.02445485,52.906697 -0.35921841,45.279637 3.7827436,36.634887 11.671733,28.597487 c 1.731529,-1.7641 2.986334,-2.95317 2.788455,-2.64238 -0.197879,0.31079 -1.152664,1.73954 -2.121745,3.175 -3.3289026,4.93096 -5.4132595,9.81115 -6.217108,14.55636 -1.3696513,8.08521 2.8282436,13.6355 11.706312,15.47761 2.232449,0.46321 3.233036,0.52292 6.723782,0.40126 6.746358,-0.23513 13.818828,-2.0653 20.435035,-5.28805 l 3.356963,-1.63517 -1.775706,-2.39637 c -5.31416,-7.17159 -14.079458,-19.16695 -14.631873,-20.0238 -0.350656,-0.5439 -0.697088,-0.99041 -0.769848,-0.99224 -0.07276,-0.002 -0.132291,6.15327 -0.132291,13.678 v 13.68132 l -0.92604,0.22143 c -0.509322,0.12179 -3.27752,0.29183 -6.151551,0.37788 l -5.22551,0.15645 V 34.289807 11.234832 l 7.07759,0.0104 7.07759,0.0104 6.907536,9.71299 c 3.799153,5.342145 9.097422,12.846865 11.773937,16.677155 l 4.866391,6.96416 0.0679,-16.62145 0.0679,-16.621455 h 5.790394 5.790399 l 0.18846,6.87917 c 0.103659,3.78354 0.146319,8.793745 0.0948,11.133795 -0.112879,5.12703 0.583919,3.95752 -7.211146,12.10317 -3.062299,3.20001 -5.430214,5.7697 -5.262034,5.71041 0.824428,-0.29063 6.673572,-5.21692 9.652736,-8.12977 6.167988,-6.03068 10.2414,-12.51193 12.055007,-19.180825 0.677918,-2.49283 0.589648,-6.75471 -0.18087,-8.73212 -2.183426,-5.60344 -10.066201,-8.89793 -20.588235,-8.60455 -1.764947,0.0492 -3.050604,10e-4 -2.857015,-0.10664 0.467669,-0.26057 6.143343,-1.66869992 8.477059,-2.10315994 1.047288,-0.19497 3.691603,-0.34114 6.085408,-0.33640000071 C 72.192716,0.00711206 73.158424,0.09991206 74.942471,0.60861208 79.467962,1.898912 82.661416,4.372732 84.306243,7.862302 c 1.012308,2.14764 1.363757,3.90941 1.363757,6.8362 0,8.847845 -5.720329,19.386295 -15.784769,29.079995 -13.05209,12.57126 -29.541058,21.26599 -43.898871,23.14814 -3.63951,0.4771 -9.310861,0.48337 -11.899345,0.0131 z m 42.718186,-3.76813 c -0.372489,-0.40702 -1.117658,-1.3556 -1.655937,-2.10797 l -0.978688,-1.36794 2.851355,-1.71798 c 3.399648,-2.04833 6.834091,-4.46378 9.347386,-6.57404 1.008638,-0.8469 1.864637,-1.53989 1.902207,-1.53999 0.0376,-1e-4 0.0348,3.14194 -0.006,6.98231 l -0.0745,6.98249 -5.35422,0.0416 -5.354224,0.0416 z"
         id="path1"
         sodipodi:nodetypes="sssscsssssscsscssssscsssssssscsscscsscccccsscccccsssssssscsccsssscccscsssccccc" /><text
         xml:space="preserve"
         style="font-weight:600;font-size:74.9653px;font-family:Montserrat;-inkscape-font-specification:'Montserrat Semi-Bold';text-align:start;writing-mode:lr-tb;direction:ltr;text-anchor:start;fill:url(#linearGradient6);stroke-width:0.264583"
         x="83.271301"
         y="63.259136"
         id="text1"><tspan
           sodipodi:role="line"
           id="tspan1"
           style="font-style:normal;font-variant:normal;font-weight:bold;font-stretch:normal;font-size:74.9653px;font-family:Montserrat;-inkscape-font-specification:'Montserrat Bold';fill:url(#linearGradient6);stroke-width:0.264583"
           x="83.271301"
           y="63.259136">ovaPlayLatam</tspan></text></g></g></svg>
